<?xml version="1.0" encoding="iso-8859-1"?>
<!-- Uploaded to: SVG Repo, www.svgrepo.com, Generator: SVG Repo Mixer Tools -->
<svg height="800px" width="800px" version="1.1" id="Layer_1" xmlns="http://www.w3.org/2000/svg" xmlns:xlink="http://www.w3.org/1999/xlink" 
	 viewBox="0 0 511.999 511.999" xml:space="preserve">
<path style="fill:#7C54B8;" d="M278.437,29.31h-7.893c-2.981,0-5.397-2.416-5.397-5.397V10.303c0-5.03-3.875-9.416-8.903-9.566
	c-5.201-0.157-9.468,4.015-9.468,9.182v13.995c0,2.981-2.416,5.397-5.397,5.397h-8.303c-5.03,0-9.416,3.875-9.566,8.903
	c-0.157,5.201,4.015,9.468,9.182,9.468h8.687c2.981,0,5.397,2.416,5.397,5.397v23.188c0,5.03,3.875,9.416,8.903,9.566
	c5.201,0.157,9.469-4.015,9.469-9.182V53.079c0-2.981,2.416-5.397,5.397-5.397h8.279c5.167,0,9.337-4.266,9.182-9.468
	C287.852,33.185,283.467,29.31,278.437,29.31z"/>
<path style="fill:#FFDB6C;" d="M341.725,192.382c16.119-8.446,34.463-13.222,53.922-13.222c64.259,0,116.351,52.092,116.351,116.351
	c0,5.873,0.306,24.326-9.379,43.863c-14.901,30.06-39.182,34.483-60.42,66.136c-10.878,16.213-15.906,31.952-18.448,42.704H88.247
	c-2.543-10.752-7.569-26.491-18.447-42.704c-21.238-31.653-45.519-36.076-60.42-66.136c-9.685-19.538-9.379-37.992-9.379-43.863
	c0-64.259,52.092-116.351,116.351-116.351c19.459,0,37.803,4.776,53.922,13.222"/>
<g>
	<path style="fill:#FFB966;" d="M511.959,295.51c0-64.259-52.092-116.351-116.351-116.351c-19.459,0-37.803,4.776-53.922,13.222
		h-39.449c37.117,19.44,62.446,58.323,62.446,103.128c0,5.873,0.306,24.326-9.379,43.863c-14.901,30.06,3.212,34.483-18.027,66.136
		c-10.878,16.213-15.906,31.952-18.448,42.704h104.881c2.543-10.752,7.569-26.491,18.448-42.704
		c21.238-31.653,45.519-36.076,60.42-66.136C512.266,319.836,511.959,301.383,511.959,295.51z"/>
	<path style="fill:#FFB966;" d="M74.048,411.633c8.255,13.993,12.372,27.189,14.593,36.581h335.502
		c2.22-9.391,6.338-22.587,14.593-36.581H74.048z"/>
</g>
<path style="fill:#F7A05E;" d="M423.712,448.214c2.22-9.391,6.338-22.587,14.593-36.581H333.424
	c-8.255,13.993-12.372,27.189-14.593,36.581H423.712z"/>
<path style="fill:#FFDB6C;" d="M305.251,136.366h-98.333V125.82c0-27.154,22.012-49.166,49.166-49.166l0,0
	c27.154,0,49.167,22.012,49.167,49.166V136.366z"/>
<path style="fill:#FFB966;" d="M256.085,76.653L256.085,76.653c-5.651,0-11.073,0.965-16.126,2.72
	C259.19,86.049,273,104.316,273,125.82v10.546h32.251V125.82C305.251,98.665,283.239,76.653,256.085,76.653z"/>
<path style="fill:#7C54B8;" d="M192.924,196.078c-8.261,0.424-47.395,3.301-76.06,35.518
	c-20.304,22.821-34.368,59.249-24.699,91.243c11.83,39.146,51.167,45.115,64.299,94.918c3.287,12.467,3.76,23.482,3.674,30.457
	h199.926c-0.086-6.975,0.387-17.989,3.674-30.457c13.132-49.803,52.469-55.771,64.299-94.918
	c9.668-31.994-4.394-68.423-24.699-91.243c-28.665-32.217-67.799-35.094-76.06-35.518"/>
<path style="fill:#674799;" d="M365.577,411.633H154.625c0.653,1.974,1.277,3.995,1.84,6.124c3.287,12.467,3.76,23.482,3.674,30.457
	h199.926c-0.086-6.975,0.387-17.989,3.674-30.457C364.3,415.629,364.924,413.607,365.577,411.633z"/>
<path style="fill:#FFDB6C;" d="M212.307,196.078c-10.735,41.52-16.645,86.756-16.645,134.107c0,41.346,4.507,80.971,12.795,118.028
	h95.257c8.288-37.057,12.795-76.682,12.795-118.028c0-47.351-5.909-92.587-16.645-134.107H212.307z"/>
<path style="fill:#FFB966;" d="M208.456,448.214h95.257c2.669-11.935,4.941-24.141,6.801-36.581H201.655
	C203.517,424.073,205.787,436.279,208.456,448.214z"/>
<path style="fill:#674799;" d="M403.338,231.596c-28.665-32.217-67.799-35.094-76.06-35.518h-27.415
	c10.735,41.52,16.646,86.756,16.646,134.107c0,41.215-4.48,81.072-12.718,118.028h56.274c-0.086-6.975,0.387-17.989,3.674-30.457
	c13.132-49.803,52.469-55.771,64.299-94.918C437.704,290.845,423.642,254.417,403.338,231.596z"/>
<path style="fill:#553D82;" d="M365.577,411.633h-55.025c-1.849,12.459-4.108,24.672-6.762,36.581h56.274
	c-0.086-6.975,0.387-17.989,3.674-30.457C364.3,415.629,364.924,413.607,365.577,411.633z"/>
<path style="fill:#FD4DD7;" d="M327.402,196.078H184.768c-16.49,0-29.857-13.367-29.857-29.857l0,0
	c0-16.49,13.367-29.857,29.857-29.857h142.634c16.49,0,29.857,13.367,29.857,29.857l0,0
	C357.259,182.712,343.89,196.078,327.402,196.078z"/>
<path style="fill:#E846AA;" d="M327.277,136.366h-45.68c16.49,0,29.857,13.367,29.857,29.857l0,0
	c0,16.49-13.367,29.857-29.857,29.857h45.68c16.49,0,29.857-13.367,29.857-29.857l0,0
	C357.134,149.733,343.767,136.366,327.277,136.366z"/>
<g>
	<circle style="fill:#FFDB6C;" cx="219.46" cy="166.222" r="9.186"/>
	<circle style="fill:#FFDB6C;" cx="256.386" cy="166.222" r="9.186"/>
	<circle style="fill:#FFDB6C;" cx="293.324" cy="166.222" r="9.186"/>
</g>
<path style="fill:#FC4C59;" d="M422.038,445.764H90.132c-8.861,0-16.043,7.29-16.043,16.151v33.308
	c0,8.861,7.183,16.043,16.043,16.043h331.905c8.861,0,16.043-7.183,16.043-16.043v-33.308
	C438.081,453.054,430.897,445.764,422.038,445.764z"/>
<path style="fill:#E83A64;" d="M422.038,445.764h-56.644c8.861,0,16.043,7.29,16.043,16.151v33.308
	c0,8.861-7.183,16.043-16.043,16.043h56.644c8.861,0,16.043-7.183,16.043-16.043v-33.308
	C438.081,453.054,430.897,445.764,422.038,445.764z"/>
<g>
	<circle style="fill:#FFDB6C;" cx="108.682" cy="478.568" r="9.186"/>
	<circle style="fill:#FFDB6C;" cx="145.608" cy="478.568" r="9.186"/>
	<circle style="fill:#FFDB6C;" cx="182.534" cy="478.568" r="9.186"/>
	<circle style="fill:#FFDB6C;" cx="219.46" cy="478.568" r="9.186"/>
	<circle style="fill:#FFDB6C;" cx="256.386" cy="478.568" r="9.186"/>
	<circle style="fill:#FFDB6C;" cx="293.324" cy="478.568" r="9.186"/>
	<circle style="fill:#FFDB6C;" cx="367.176" cy="478.568" r="9.186"/>
	<circle style="fill:#FFDB6C;" cx="330.25" cy="478.568" r="9.186"/>
	<circle style="fill:#FFDB6C;" cx="404.102" cy="478.568" r="9.186"/>
</g>
</svg>